<svg width="100" height="100" viewBox="0 0 100 100" fill="none" xmlns="http://www.w3.org/2000/svg">
<g clip-path="url(#clip0_116_93)">
<rect x="2.5" y="2.5" width="95" height="95" stroke="white" stroke-width="5"/>
<path opacity="0.983" fill-rule="evenodd" clip-rule="evenodd" d="M5.5 2.5C34.8333 2.5 64.1667 2.5 93.5 2.5C95.1667 3.5 96.5 4.83333 97.5 6.5C97.5 35.8333 97.5 65.1667 97.5 94.5C96.5 96.1667 95.1667 97.5 93.5 98.5C64.1667 98.5 34.8333 98.5 5.5 98.5C3.83333 97.5 2.5 96.1667 1.5 94.5C1.5 65.1667 1.5 35.8333 1.5 6.5C2.5 4.83333 3.83333 3.5 5.5 2.5ZM47.5 15.5C49.6547 15.372 51.6547 15.872 53.5 17C63.5 23.6667 73.5 30.3333 83.5 37C84.1258 37.7504 84.6258 38.5838 85 39.5C85.6667 46.8333 85.6667 54.1667 85 61.5C73.9794 70.6018 62.146 78.6018 49.5 85.5C36.854 78.6018 25.0206 70.6018 14 61.5C13.8333 57.8333 13.6667 54.1667 13.5 50.5C13.3961 46.0534 13.8961 41.7201 15 37.5C25.9856 30.2674 36.8189 22.9341 47.5 15.5Z" fill="white"/>
<path opacity="0.918" fill-rule="evenodd" clip-rule="evenodd" d="M45.5 22.5C46.6507 27.6503 46.8174 32.9836 46 38.5C41.6667 41.5 37.3333 44.5 33 47.5C29.0287 45.0282 25.1954 42.3615 21.5 39.5C29.5667 33.8114 37.5667 28.1447 45.5 22.5Z" fill="white"/>
<path opacity="0.898" fill-rule="evenodd" clip-rule="evenodd" d="M52.4996 22.5C60.9773 27.9093 69.3107 33.576 77.4996 39.5C73.8042 42.3615 69.9709 45.0282 65.9996 47.5C61.6663 44.5 57.3329 41.5 52.9996 38.5C52.5002 33.1771 52.3336 27.8437 52.4996 22.5Z" fill="white"/>
<path opacity="0.911" fill-rule="evenodd" clip-rule="evenodd" d="M48.5 42.5C52.8237 44.6632 56.8237 47.3299 60.5 50.5C57.0484 53.3993 53.3817 56.0659 49.5 58.5C45.6183 56.0659 41.9516 53.3993 38.5 50.5C41.8638 47.8249 45.1971 45.1582 48.5 42.5Z" fill="white"/>
<path opacity="0.821" fill-rule="evenodd" clip-rule="evenodd" d="M78.5 44.5C79.6453 48.3112 79.8119 52.3112 79 56.5C76.3313 54.6596 73.8313 52.6596 71.5 50.5C73.8528 48.4773 76.1862 46.4773 78.5 44.5Z" fill="white"/>
<path opacity="0.91" fill-rule="evenodd" clip-rule="evenodd" d="M19.4993 44.5C22.4542 46.1223 25.1208 48.1223 27.4993 50.5C25.168 52.6596 22.668 54.6596 19.9993 56.5C19.5005 52.5138 19.3338 48.5138 19.4993 44.5Z" fill="white"/>
<path opacity="0.916" fill-rule="evenodd" clip-rule="evenodd" d="M32.5 53.5C37.1182 56.278 41.6182 59.278 46 62.5C46.6667 67.8333 46.6667 73.1667 46 78.5C37.7461 72.9566 29.5795 67.29 21.5 61.5C25.2085 58.7767 28.8751 56.1101 32.5 53.5Z" fill="white"/>
<path opacity="0.898" fill-rule="evenodd" clip-rule="evenodd" d="M65.5 53.5C69.7542 55.7485 73.7542 58.4152 77.5 61.5C69.4205 67.29 61.2539 72.9566 53 78.5C52.3333 73.1667 52.3333 67.8333 53 62.5C57.3221 59.601 61.4887 56.601 65.5 53.5Z" fill="white"/>
</g>
<defs>
<clipPath id="clip0_116_93">
<rect width="100" height="100" rx="50" fill="white"/>
</clipPath>
</defs>
</svg>
