<?xml version="1.0" encoding="UTF-8"?>
<svg id="Calque_2" data-name="Calque 2" xmlns="http://www.w3.org/2000/svg" viewBox="0 0 12.28 12.28">
  <defs>
    <style>
      .cls-1 {
        fill: none;
      }

      .cls-2 {
        fill: #fff;
      }
    </style>
  </defs>
  <g id="Calque_1-2" data-name="Calque 1">
    <rect class="cls-1" width="12.28" height="12.28"/>
    <g>
      <path class="cls-2" d="m4.69,1.58c2.37,0,4.75,1.52,4.75,4.58s-2.4,4.61-4.79,4.61c-1.46,0-2.94-.6-3.85-1.86-.16-.22-.2-.43-.2-.62,0-.34.19-.58.5-.66.66-.18,1.45-.29,1.88-.67.11-.1.14-.18.14-.25,0-.06-.04-.08-.1-.08-.04,0-.07.01-.13.04-.47.25-.89.35-1.26.35-.98,0-1.57-.76-1.57-1.64,0-.17.04-.34.07-.52C.71,2.65,2.7,1.58,4.69,1.58Zm-1.12,3.78c.34,0,.5.25.5.6,0,.4-.24.94-.78,1.37-.56.44-1.13.74-1.13,1.19,0,.12.04.24.13.4.59.84,1.45,1.42,2.4,1.43,1.81-.04,3.26-2.05,3.26-4.17S6.5,1.99,4.69,1.99c-1.42,0-2.61,1.28-3.06,2.85-.01.07-.02.12-.02.19,0,.38.3.72.76.72.35,0,.9-.4,1.21-.4Z"/>
      <path class="cls-2" d="m11.34,10.76c-.52,0-.92-.41-.92-.9s.41-.88.92-.88.94.38.94.88-.42.9-.94.9Z"/>
    </g>
  </g>
</svg>